<?xml version="1.0" encoding="UTF-8"?>
<svg id="Layer_2" data-name="Layer 2" xmlns="http://www.w3.org/2000/svg" viewBox="0 0 380.34 450.61">
  <defs>
    <style>
      .cls-1 {
        fill: #ffb900;
      }
    </style>
  </defs>
  <g id="Flat_logo" data-name="Flat logo">
    <g>
      <path class="cls-1" d="M21.48,206.48l70.23-40.55v29.17l-58.94,34.03c-4.65,2.68-7.5,7.63-7.5,12.99v208.49H10c-5.52,0-10-4.47-10-10V233.31c0-8.93,4.77-17.19,12.51-21.65l8.97-5.18Z"/>
      <path class="cls-1" d="M201.06,111.46V440.61c0,5.53-4.47,10-10,10h-15.26V151.75c0-2.31-2.49-3.75-4.49-2.6l-38.33,22.13v-29.18l42.82-24.72,17.77-10.25c3.33-1.92,7.49,.48,7.49,4.33Z"/>
      <path class="cls-1" d="M299.99,5.01V440.61c0,5.53-4.47,10-10,10h-15.26V45.31c0-2.31-2.49-3.75-4.49-2.6L132.48,122.24c-4.65,2.68-7.5,7.63-7.5,12.99V450.61h-15.26c-5.53,0-10-4.47-10-10V126.41c0-8.93,4.76-17.18,12.49-21.64l12.77-7.38L274.73,10.93,292.5,.68c3.33-1.92,7.49,.48,7.49,4.33Z"/>
      <path class="cls-1" d="M260.09,221.01l6.65,3.84v29.17l-2.15-1.24c-2-1.15-4.5,.29-4.5,2.6v195.23h-15.28c-5.52,0-10-4.47-10-10V215.08c0-3.85,4.17-6.25,7.51-4.33l17.77,10.26Z"/>
      <path class="cls-1" d="M380.34,304.88v135.73c0,5.53-4.48,10-10,10h-15.28v-136.93c0-5.36-2.85-10.31-7.49-12.99l-39.57-22.85v-29.16l47.06,27.17,12.78,7.38c7.73,4.46,12.5,12.71,12.5,21.65Z"/>
    </g>
  </g>
</svg>